C:\GBW_MyPrograms\KinderuniversiteitApp\Resultaten\Ellis\SpongeBob_v3.mot
version=1
nRows=10
nColumns=31
inDegrees=yes
endheader
                time	         pelvis_tilt	           pelvis_tx	           pelvis_ty	       hip_flexion_r	        knee_angle_r	       ankle_angle_r	       hip_flexion_l	        knee_angle_l	       ankle_angle_l	    lumbar_extension	          arm_flex_r	          arm_flex_l	hamstrings_r/activation	bifemsh_r/activation	glut_max_r/activation	iliopsoas_r/activation	rect_fem_r/activation	  vasti_r/activation	gastroc_r/activation	 soleus_r/activation	tib_ant_r/activation	hamstrings_l/activation	bifemsh_l/activation	glut_max_l/activation	iliopsoas_l/activation	rect_fem_l/activation	  vasti_l/activation	gastroc_l/activation	 soleus_l/activation	tib_ant_l/activation	
          0.37133410	         -1.28827805	          0.49387435	          1.03221083	         24.98104717	        -43.93637977	         -3.60519144	          9.45238273	        -19.37460545	          3.59213681	         -3.13758140	         -3.73107701	         -3.73107937	          0.18075431	          0.67930650	          0.22260236	          0.79063104	          0.69376803	          0.30144778	          0.24308007	          0.06622882	          0.89152588	          0.52899098	          0.65307577	          0.48780792	          0.69735061	          0.57527837	          0.44600620	          0.06426064	          0.05669773	          0.91129130	
          0.37876078	         -1.32283558	          0.50317978	          1.02519983	         26.01679700	        -44.17322533	         -2.30253263	          8.96527805	        -19.20527277	          5.46854041	         -3.15618561	         -3.65829328	         -3.65829563	          0.17889644	          0.67957592	          0.22614005	          0.78921998	          0.69100449	          0.29843103	          0.22794832	          0.06177408	          0.89232495	          0.50935439	          0.65003749	          0.50199531	          0.67333748	          0.58073132	          0.45211467	          0.05838062	          0.05104273	          0.92496741	
          0.38618746	         -1.35140841	          0.51251222	          1.01770224	         27.02014391	        -44.27155201	         -1.03771732	          8.49043107	        -19.42281677	          7.76079622	         -3.17879927	         -3.58828201	         -3.58828426	          0.17216037	          0.68418471	          0.23128081	          0.79789375	          0.69306312	          0.28915130	          0.21541900	          0.05884511	          0.88873868	          0.46794391	          0.62488416	          0.53651149	          0.64224334	          0.60426809	          0.51514343	          0.10396288	          0.07336492	          0.83056560	
          0.39361414	         -1.37377916	          0.52189834	          1.00987695	         27.98630524	        -44.23982649	          0.12286900	          7.98330738	        -19.86848049	         10.45384878	         -3.20289791	         -3.52486632	         -3.52486852	          0.18334796	          0.69449429	          0.21968033	          0.79654233	          0.69311535	          0.27799306	          0.20664178	          0.05918339	          0.88163690	          0.43056831	          0.61019902	          0.58160608	          0.60573681	          0.62541089	          0.56732871	          0.14437020	          0.09183217	          0.75636790	
          0.40104083	         -1.38137168	          0.53125789	          1.00226228	         28.88281654	        -44.03578092	          1.03538653	          7.63128525	        -20.58888460	         12.71928907	         -3.24876235	         -3.45524626	         -3.45524837	          0.17318406	          0.70331102	          0.22194832	          0.82699473	          0.72187676	          0.26816562	          0.19907083	          0.06012768	          0.87611496	          0.39032244	          0.58397781	          0.55475362	          0.65875017	          0.70713038	          0.66251755	          0.17890657	          0.11702635	          0.69545135	
          0.40846751	         -1.40468695	          0.54047748	          0.99543688	         29.71635320	        -43.62913002	          1.76255418	          7.82128765	        -22.18619234	         14.58584664	         -3.29486087	         -3.37058088	         -3.37058286	          0.16718157	          0.70075220	          0.20964389	          0.81773121	          0.72521096	          0.27139374	          0.19309735	          0.06101643	          0.86263440	          0.35548146	          0.56712880	          0.52844843	          0.66836292	          0.74607246	          0.73179837	          0.21511150	          0.14158560	          0.64195664	
          0.41589419	         -1.46392965	          0.54969618	          0.98944970	         30.50637312	        -43.10297588	          2.47788840	          8.41379429	        -24.39519631	         16.11722196	         -3.30187058	         -3.29502341	         -3.29502534	          0.16477391	          0.68239363	          0.22563787	          0.80518692	          0.73222525	          0.30235507	          0.19091662	          0.06764662	          0.82883085	          0.32430628	          0.54500124	          0.53349714	          0.66100325	          0.78966469	          0.79841937	          0.25466916	          0.18238813	          0.59202077	
          0.42332087	         -1.52556368	          0.55914525	          0.98420160	         31.20543006	        -42.51329873	          2.98248993	          8.98884886	        -26.54936344	         17.31780865	         -3.28258355	         -3.25378571	         -3.25378744	          0.17259939	          0.66452868	          0.23952596	          0.77103795	          0.72770245	          0.34810438	          0.18981429	          0.07505606	          0.78392135	          0.29979295	          0.52538602	          0.54936405	          0.63753718	          0.80904566	          0.84649476	          0.29351041	          0.22419554	          0.54425612	
          0.43074755	         -1.57760671	          0.56895853	          0.97965019	         31.77480720	        -41.87536660	          3.16406473	          9.32643472	        -28.30311174	         18.26304160	         -3.23573589	         -3.26296870	         -3.26297039	          0.18224796	          0.64268730	          0.27216501	          0.73419196	          0.72621097	          0.42074483	          0.18790627	          0.08115609	          0.72430929	          0.28014079	          0.50750400	          0.56909193	          0.62322955	          0.82542331	          0.87848006	          0.33264952	          0.26787556	          0.49682788	
          0.43817424	         -1.62159852	          0.57918704	          0.97580659	         32.18181044	        -41.22617991	          3.14422367	          9.38592107	        -29.59351631	         19.00029058	         -3.15371640	         -3.32990128	         -3.32990274	          0.19824281	          0.61478214	          0.32278161	          0.68795193	          0.72272449	          0.52240765	          0.17986397	          0.07746202	          0.65290167	          0.26768123	          0.49236207	          0.57733552	          0.60895374	          0.83170288	          0.89524108	          0.37238692	          0.31227987	          0.44834385	
